<svg xmlns="http://www.w3.org/2000/svg" viewBox="0 0 700 430" role="img" aria-label="Insufficient convolution padding folds coefficients together"><title>Insufficient convolution padding folds coefficients together</title><defs><marker id="exam-arrow" viewBox="0 0 10 10" refX="9" refY="5" markerWidth="7" markerHeight="7" orient="auto-start-reverse"><path d="M 0 0 L 10 5 L 0 10 z" fill="#6589a0"/></marker></defs><text x="350" y="31" font-size="24" text-anchor="middle" fill="#25394b" font-family="STIX Two Math">Insufficient convolution padding folds coefficients together</text><rect x="30" y="80" width="250" height="45" rx="8" fill="#e8f0f5" stroke="#91abba"/><text x="155.0" y="110.5" font-size="23" text-anchor="middle" fill="#25394b" font-family="STIX Two Math">Degree 0: 4</text><rect x="30" y="145" width="250" height="45" rx="8" fill="#e8f0f5" stroke="#91abba"/><text x="155.0" y="175.5" font-size="23" text-anchor="middle" fill="#25394b" font-family="STIX Two Math">Degree 1: 13</text><rect x="30" y="210" width="250" height="45" rx="8" fill="#e8f0f5" stroke="#91abba"/><text x="155.0" y="240.5" font-size="23" text-anchor="middle" fill="#25394b" font-family="STIX Two Math">Degree 2: 22</text><rect x="30" y="275" width="250" height="45" rx="8" fill="#e8f0f5" stroke="#91abba"/><text x="155.0" y="305.5" font-size="23" text-anchor="middle" fill="#25394b" font-family="STIX Two Math">Degree 3: 15</text><rect x="415" y="125" width="250" height="60" rx="8" fill="#e8f0f5" stroke="#91abba"/><text x="540.0" y="163.0" font-size="21" text-anchor="middle" fill="#25394b" font-family="STIX Two Math">Index 0: 4 + 22 = 26</text><rect x="415" y="250" width="250" height="60" rx="8" fill="#e8f0f5" stroke="#91abba"/><text x="540.0" y="288.0" font-size="21" text-anchor="middle" fill="#25394b" font-family="STIX Two Math">Index 1: 13 + 15 = 28</text><line x1="280" y1="102" x2="415" y2="155" stroke="#6589a0" stroke-width="2" marker-end="url(#exam-arrow)"/><line x1="280" y1="167" x2="415" y2="280" stroke="#6589a0" stroke-width="2" marker-end="url(#exam-arrow)"/><line x1="280" y1="232" x2="415" y2="155" stroke="#6589a0" stroke-width="2" marker-end="url(#exam-arrow)"/><line x1="280" y1="297" x2="415" y2="280" stroke="#6589a0" stroke-width="2" marker-end="url(#exam-arrow)"/><text x="350" y="390" font-size="23" text-anchor="middle" fill="#25394b" font-family="STIX Two Math">Linear length is 4; cyclic length 2 aliases degrees</text></svg>