<svg xmlns="http://www.w3.org/2000/svg" viewBox="0 0 700 390" role="img" aria-label="Solve 6x ≡ 8 modulo 14 by reducing the gcd"><title>Solve 6x ≡ 8 modulo 14 by reducing the gcd</title><defs><marker id="exam-arrow" viewBox="0 0 10 10" refX="9" refY="5" markerWidth="7" markerHeight="7" orient="auto-start-reverse"><path d="M 0 0 L 10 5 L 0 10 z" fill="#6589a0"/></marker></defs><text x="350" y="31" font-size="24" text-anchor="middle" fill="#25394b" font-family="STIX Two Math">Solve 6x ≡ 8 modulo 14 by reducing the gcd</text><circle cx="70" cy="115" r="24" fill="#edf1f4" stroke="#8ba9b9"/><text x="70" y="123" font-size="24" text-anchor="middle" fill="#25394b" font-family="STIX Two Math">0</text><circle cx="162" cy="115" r="24" fill="#edf1f4" stroke="#8ba9b9"/><text x="162" y="123" font-size="24" text-anchor="middle" fill="#25394b" font-family="STIX Two Math">1</text><circle cx="254" cy="115" r="24" fill="#edf1f4" stroke="#8ba9b9"/><text x="254" y="123" font-size="24" text-anchor="middle" fill="#25394b" font-family="STIX Two Math">2</text><circle cx="346" cy="115" r="24" fill="#edf1f4" stroke="#8ba9b9"/><text x="346" y="123" font-size="24" text-anchor="middle" fill="#25394b" font-family="STIX Two Math">3</text><circle cx="438" cy="115" r="24" fill="#edf1f4" stroke="#8ba9b9"/><text x="438" y="123" font-size="24" text-anchor="middle" fill="#25394b" font-family="STIX Two Math">4</text><circle cx="530" cy="115" r="24" fill="#edf1f4" stroke="#8ba9b9"/><text x="530" y="123" font-size="24" text-anchor="middle" fill="#25394b" font-family="STIX Two Math">5</text><circle cx="622" cy="115" r="24" fill="#d6e9dd" stroke="#8ba9b9"/><text x="622" y="123" font-size="24" text-anchor="middle" fill="#25394b" font-family="STIX Two Math">6</text><circle cx="70" cy="220" r="24" fill="#edf1f4" stroke="#8ba9b9"/><text x="70" y="228" font-size="24" text-anchor="middle" fill="#25394b" font-family="STIX Two Math">7</text><circle cx="162" cy="220" r="24" fill="#edf1f4" stroke="#8ba9b9"/><text x="162" y="228" font-size="24" text-anchor="middle" fill="#25394b" font-family="STIX Two Math">8</text><circle cx="254" cy="220" r="24" fill="#edf1f4" stroke="#8ba9b9"/><text x="254" y="228" font-size="24" text-anchor="middle" fill="#25394b" font-family="STIX Two Math">9</text><circle cx="346" cy="220" r="24" fill="#edf1f4" stroke="#8ba9b9"/><text x="346" y="228" font-size="24" text-anchor="middle" fill="#25394b" font-family="STIX Two Math">10</text><circle cx="438" cy="220" r="24" fill="#edf1f4" stroke="#8ba9b9"/><text x="438" y="228" font-size="24" text-anchor="middle" fill="#25394b" font-family="STIX Two Math">11</text><circle cx="530" cy="220" r="24" fill="#edf1f4" stroke="#8ba9b9"/><text x="530" y="228" font-size="24" text-anchor="middle" fill="#25394b" font-family="STIX Two Math">12</text><circle cx="622" cy="220" r="24" fill="#d6e9dd" stroke="#8ba9b9"/><text x="622" y="228" font-size="24" text-anchor="middle" fill="#25394b" font-family="STIX Two Math">13</text><text x="350" y="300" font-size="25" text-anchor="middle" fill="#25394b" font-family="STIX Two Math">Solutions modulo 14: 6 and 13</text><text x="350" y="350" font-size="25" text-anchor="middle" fill="#25394b" font-family="STIX Two Math">One residue modulo 7: x = 6 + 7t</text></svg>