<svg xmlns="http://www.w3.org/2000/svg" viewBox="0 0 700 445" role="img" aria-label="Divisibility of 72 as an exponent-grid Hasse diagram"><title>Divisibility of 72 as an exponent-grid Hasse diagram</title><defs><marker id="exam-arrow" viewBox="0 0 10 10" refX="9" refY="5" markerWidth="7" markerHeight="7" orient="auto-start-reverse"><path d="M 0 0 L 10 5 L 0 10 z" fill="#6589a0"/></marker></defs><text x="350" y="31" font-size="24" text-anchor="middle" fill="#25394b" font-family="STIX Two Math">Divisibility of 72 as an exponent-grid Hasse diagram</text><line x1="120" y1="345" x2="240" y2="315" stroke="#6589a0" stroke-width="2"/><line x1="120" y1="345" x2="120" y2="255" stroke="#6589a0" stroke-width="2"/><line x1="120" y1="255" x2="240" y2="225" stroke="#6589a0" stroke-width="2"/><line x1="120" y1="255" x2="120" y2="165" stroke="#6589a0" stroke-width="2"/><line x1="120" y1="165" x2="240" y2="135" stroke="#6589a0" stroke-width="2"/><line x1="240" y1="315" x2="360" y2="285" stroke="#6589a0" stroke-width="2"/><line x1="240" y1="315" x2="240" y2="225" stroke="#6589a0" stroke-width="2"/><line x1="240" y1="225" x2="360" y2="195" stroke="#6589a0" stroke-width="2"/><line x1="240" y1="225" x2="240" y2="135" stroke="#6589a0" stroke-width="2"/><line x1="240" y1="135" x2="360" y2="105" stroke="#6589a0" stroke-width="2"/><line x1="360" y1="285" x2="480" y2="255" stroke="#6589a0" stroke-width="2"/><line x1="360" y1="285" x2="360" y2="195" stroke="#6589a0" stroke-width="2"/><line x1="360" y1="195" x2="480" y2="165" stroke="#6589a0" stroke-width="2"/><line x1="360" y1="195" x2="360" y2="105" stroke="#6589a0" stroke-width="2"/><line x1="360" y1="105" x2="480" y2="75" stroke="#6589a0" stroke-width="2"/><line x1="480" y1="255" x2="480" y2="165" stroke="#6589a0" stroke-width="2"/><line x1="480" y1="165" x2="480" y2="75" stroke="#6589a0" stroke-width="2"/><circle cx="120" cy="345" r="20" fill="#e2edf3" stroke="#7c9dad"/><text x="120" y="352" font-size="22" text-anchor="middle" fill="#25394b" font-family="STIX Two Math">1</text><circle cx="120" cy="255" r="20" fill="#e2edf3" stroke="#7c9dad"/><text x="120" y="262" font-size="22" text-anchor="middle" fill="#25394b" font-family="STIX Two Math">3</text><circle cx="120" cy="165" r="20" fill="#e2edf3" stroke="#7c9dad"/><text x="120" y="172" font-size="22" text-anchor="middle" fill="#25394b" font-family="STIX Two Math">9</text><circle cx="240" cy="315" r="20" fill="#e2edf3" stroke="#7c9dad"/><text x="240" y="322" font-size="22" text-anchor="middle" fill="#25394b" font-family="STIX Two Math">2</text><circle cx="240" cy="225" r="20" fill="#e2edf3" stroke="#7c9dad"/><text x="240" y="232" font-size="22" text-anchor="middle" fill="#25394b" font-family="STIX Two Math">6</text><circle cx="240" cy="135" r="20" fill="#e2edf3" stroke="#7c9dad"/><text x="240" y="142" font-size="22" text-anchor="middle" fill="#25394b" font-family="STIX Two Math">18</text><circle cx="360" cy="285" r="20" fill="#e2edf3" stroke="#7c9dad"/><text x="360" y="292" font-size="22" text-anchor="middle" fill="#25394b" font-family="STIX Two Math">4</text><circle cx="360" cy="195" r="20" fill="#e2edf3" stroke="#7c9dad"/><text x="360" y="202" font-size="22" text-anchor="middle" fill="#25394b" font-family="STIX Two Math">12</text><circle cx="360" cy="105" r="20" fill="#e2edf3" stroke="#7c9dad"/><text x="360" y="112" font-size="22" text-anchor="middle" fill="#25394b" font-family="STIX Two Math">36</text><circle cx="480" cy="255" r="20" fill="#e2edf3" stroke="#7c9dad"/><text x="480" y="262" font-size="22" text-anchor="middle" fill="#25394b" font-family="STIX Two Math">8</text><circle cx="480" cy="165" r="20" fill="#e2edf3" stroke="#7c9dad"/><text x="480" y="172" font-size="22" text-anchor="middle" fill="#25394b" font-family="STIX Two Math">24</text><circle cx="480" cy="75" r="20" fill="#e2edf3" stroke="#7c9dad"/><text x="480" y="82" font-size="22" text-anchor="middle" fill="#25394b" font-family="STIX Two Math">72</text><text x="350" y="408" font-size="23" text-anchor="middle" fill="#25394b" font-family="STIX Two Math">12 divisors · 17 cover edges · chain length 6</text></svg>